<svg width="20" height="20" viewBox="0 0 20 20" fill="none" xmlns="http://www.w3.org/2000/svg">
<path d="M16.6654 18.3333H14.9987V16.6667C14.9987 15.2859 13.8794 14.1667 12.4987 14.1667H7.4987C6.11799 14.1667 4.9987 15.2859 4.9987 16.6667V18.3333H3.33203V16.6667C3.33203 14.3655 5.19751 12.5 7.4987 12.5H12.4987C14.7999 12.5 16.6654 14.3655 16.6654 16.6667V18.3333ZM9.9987 10.8333C7.23727 10.8333 4.9987 8.59476 4.9987 5.83334C4.9987 3.07192 7.23727 0.833344 9.9987 0.833344C12.7601 0.833344 14.9987 3.07192 14.9987 5.83334C14.9987 8.59476 12.7601 10.8333 9.9987 10.8333ZM9.9987 9.16668C11.8396 9.16668 13.332 7.67429 13.332 5.83334C13.332 3.99239 11.8396 2.50001 9.9987 2.50001C8.15775 2.50001 6.66536 3.99239 6.66536 5.83334C6.66536 7.67429 8.15775 9.16668 9.9987 9.16668Z" fill="#424242"/>
</svg>
