<svg width="20" height="20" viewBox="0 0 20 20" fill="none" xmlns="http://www.w3.org/2000/svg">
<rect width="20" height="20" fill="#1E1E1E"/>
<g id="New Flow">
<path d="M-728 -651C-728 -652.104 -727.105 -653 -726 -653H11407C11408.1 -653 11409 -652.105 11409 -651V2900C11409 2901.1 11408.1 2902 11407 2902H-726C-727.104 2902 -728 2901.1 -728 2900V-651Z" fill="#444444"/>
<path d="M-726 -652H11407V-654H-726V-652ZM11408 -651V2900H11410V-651H11408ZM11407 2901H-726V2903H11407V2901ZM-727 2900V-651H-729V2900H-727ZM-726 2901C-726.552 2901 -727 2900.55 -727 2900H-729C-729 2901.66 -727.656 2903 -726 2903V2901ZM11408 2900C11408 2900.55 11407.6 2901 11407 2901V2903C11408.7 2903 11410 2901.66 11410 2900H11408ZM11407 -652C11407.6 -652 11408 -651.552 11408 -651H11410C11410 -652.657 11408.7 -654 11407 -654V-652ZM-726 -654C-727.657 -654 -729 -652.657 -729 -651H-727C-727 -651.552 -726.552 -652 -726 -652V-654Z" fill="white" fill-opacity="0.1"/>
<g id="Beat_Plan/Dashboard">
<g clip-path="url(#clip0_21_359)">
<rect x="-352" y="-290" width="412" height="892" rx="28" fill="#F3F3F3"/>
<g id="Frame 136">
<rect width="412" height="776" transform="translate(-352 -174.496)" fill="white"/>
<g id="List item 55" clip-path="url(#clip1_21_359)">
<g id="Card with icons">
<rect x="-335.5" y="-75.5" width="379" height="1499" rx="7.5" fill="white"/>
<rect x="-335.5" y="-75.5" width="379" height="1499" rx="7.5" stroke="#EBEBEB"/>
<g id="Progress">
<g id="Optimize">
<rect x="-88.5" y="-7.5" width="120" height="35" rx="17.5" fill="white"/>
<rect x="-88.5" y="-7.5" width="120" height="35" rx="17.5" stroke="#1C64F2"/>
<g id="Frame">
<path id="Vector" d="M3.33301 12.5V7.08333C3.33301 5.01227 5.01194 3.33333 7.08301 3.33333C9.15409 3.33333 10.833 5.01227 10.833 7.08333V12.9167C10.833 14.0673 11.7658 15 12.9163 15C14.0669 15 14.9997 14.0673 14.9997 12.9167V7.35774C14.0287 7.01455 13.333 6.08852 13.333 5C13.333 3.61929 14.4523 2.5 15.833 2.5C17.2138 2.5 18.333 3.61929 18.333 5C18.333 6.08852 17.6373 7.01455 16.6663 7.35774V12.9167C16.6663 14.9878 14.9874 16.6667 12.9163 16.6667C10.8453 16.6667 9.16634 14.9878 9.16634 12.9167V7.08333C9.16634 5.93274 8.2336 5 7.08301 5C5.93242 5 4.99967 5.93274 4.99967 7.08333V12.5H7.49967L4.16634 16.6667L0.833008 12.5H3.33301ZM15.833 5.83333C16.2933 5.83333 16.6663 5.46023 16.6663 5C16.6663 4.53977 16.2933 4.16667 15.833 4.16667C15.3728 4.16667 14.9997 4.53977 14.9997 5C14.9997 5.46023 15.3728 5.83333 15.833 5.83333Z" fill="#1C64F2"/>
</g>
</g>
</g>
</g>
</g>
</g>
</g>
</g>
</g>
<defs>
<clipPath id="clip0_21_359">
<rect x="-352" y="-290" width="412" height="892" rx="28" fill="white"/>
</clipPath>
<clipPath id="clip1_21_359">
<rect width="412" height="650" fill="white" transform="translate(-352 -76)"/>
</clipPath>
</defs>
</svg>
