<svg width="20" height="20" viewBox="0 0 20 20" fill="none" xmlns="http://www.w3.org/2000/svg">
<path d="M10 19.7733L4.6967 14.47C1.76777 11.541 1.76777 6.7923 4.6967 3.86337C7.62563 0.934438 12.3743 0.934438 15.3033 3.86337C18.2323 6.7923 18.2323 11.541 15.3033 14.47L10 19.7733ZM14.1248 13.2914C16.4028 11.0134 16.4028 7.31994 14.1248 5.04188C11.8468 2.76382 8.15327 2.76382 5.87521 5.04188C3.59715 7.31994 3.59715 11.0134 5.87521 13.2914L10 17.4163L14.1248 13.2914ZM10 10.8333C9.0795 10.8333 8.33333 10.0872 8.33333 9.16667C8.33333 8.2462 9.0795 7.5 10 7.5C10.9205 7.5 11.6667 8.2462 11.6667 9.16667C11.6667 10.0872 10.9205 10.8333 10 10.8333Z" fill="#424242"/>
</svg>
