<svg width="18" height="17" viewBox="0 0 18 17" fill="none" xmlns="http://www.w3.org/2000/svg">
<path d="M8.00008 16.4958C7.71675 16.4958 7.47925 16.4 7.28758 16.2084C7.09591 16.0167 7.00008 15.7792 7.00008 15.4958V9.49585L1.20008 2.09585C0.95008 1.76252 0.91258 1.41252 1.08758 1.04585C1.26258 0.679183 1.56675 0.49585 2.00008 0.49585H16.0001C16.4334 0.49585 16.7376 0.679183 16.9126 1.04585C17.0876 1.41252 17.0501 1.76252 16.8001 2.09585L11.0001 9.49585V15.4958C11.0001 15.7792 10.9042 16.0167 10.7126 16.2084C10.5209 16.4 10.2834 16.4958 10.0001 16.4958H8.00008ZM9.00008 8.79585L13.9501 2.49585H4.05008L9.00008 8.79585Z" fill="#49454F"/>
</svg>
